# xmcd
#
# Track frame offsets: 
#        150
#        9637
#        28538
#        43701
#        69814
#        78445
#        99950
#        107452
#        115730
#        131561
#        150681
#
# Disc length: 2216 seconds
#
# Revision: 0
# Processed by: cddbd v1.5.2PL0 Copyright (c) Steve Scherf et al.
# Submitted via: ExactAudioCopy v0.99pb4
#
DISCID=7908a60b
DTITLE=Eric Johnson - Ah via musicom
DYEAR=1900
DGENRE=Blues
TTITLE0=Ah via musicom
TTITLE1=Cliffs of Dover
TTITLE2=Desert Rose
TTITLE3=High Landrons
TTITLE4=Steve's Boogie
TTITLE5=Trademark
TTITLE6=Nothing Can Keep Me From You
TTITLE7=Song For George
TTITLE8=Righteous
TTITLE9=Forty Mile Town
TTITLE10=East Wes
EXTD=
EXTT0=
EXTT1=
EXTT2=
EXTT3=
EXTT4=
EXTT5=
EXTT6=
EXTT7=
EXTT8=
EXTT9=
EXTT10=
PLAYORDER=
